<?xml version="1.0" encoding="UTF-8"?>
<svg version="1.1" xmlns="http://www.w3.org/2000/svg" width="2000" height="2000">
<path d="M0 0 C660 0 1320 0 2000 0 C2000 660 2000 1320 2000 2000 C1340 2000 680 2000 0 2000 C0 1340 0 680 0 0 Z " fill="#1E0B00" transform="translate(0,0)"/>
<path d="M0 0 C1.44576628 1.07227666 2.88482579 2.15375016 4.3125 3.25 C5.199375 3.889375 6.08625 4.52875 7 5.1875 C22.20817548 18.7515484 30.91422455 38.13182265 32.3125 58.25 C32.44436448 62.82107486 32.43922928 67.38871849 32.42602539 71.96142578 C32.42574271 73.31263731 32.42590283 74.66384899 32.4264679 76.01506042 C32.42675271 79.65279572 32.42090729 83.29049748 32.41389394 86.92822504 C32.40760758 90.74120059 32.40705244 94.55417705 32.40586853 98.36715698 C32.40277071 105.57398064 32.39457834 112.78078899 32.38451904 119.98760593 C32.37330962 128.19807853 32.36783532 136.40855188 32.36282361 144.61903024 C32.35239431 161.49602899 32.33482509 178.37301287 32.3125 195.25 C30.23158242 195.57332595 28.15052639 195.89576094 26.06941223 196.21781921 C24.91053906 196.39747066 23.7516659 196.5771221 22.55767536 196.76221752 C18.91985698 197.30901819 15.29457155 197.75502491 11.63671875 198.14453125 C10.62990555 198.25288803 10.62990555 198.25288803 9.60275269 198.36343384 C7.40213974 198.59941838 5.2010906 198.83101666 3 199.0625 C1.39507898 199.23359975 -0.20981943 199.40491168 -1.81469727 199.57641602 C-15.93017851 201.08054787 -30.05059365 202.53814037 -44.1701355 204.00354004 C-73.19151949 207.01701974 -102.20653056 210.08670322 -131.17706299 213.55841064 C-142.25294801 214.88236758 -153.33941673 216.06564945 -164.4375 217.1875 C-193.08602829 220.08405245 -221.71716033 223.14771545 -250.30935669 226.55813599 C-264.92312649 228.29999505 -279.55255301 229.88119105 -294.18630981 231.44491577 C-300.31395784 232.100509 -306.44037292 232.76699873 -312.56640625 233.4375 C-332.2683338 235.59262845 -351.97343397 237.70867429 -371.6875 239.75 C-401.58187661 242.84772751 -431.47007175 246.0024707 -461.31384277 249.55841064 C-485.2082694 252.40318788 -509.14180202 254.8876191 -533.07601929 257.37112427 C-561.42176109 260.31240389 -589.76867941 263.26064154 -618.07421875 266.5703125 C-619.01227859 266.67998352 -619.95033844 266.78965454 -620.91682434 266.90264893 C-625.31275252 267.41773922 -629.70815849 267.9367966 -634.1027832 268.46289062 C-644.50995495 269.69938911 -654.92832356 270.79195515 -665.35742188 271.82568359 C-666.75389237 271.96463126 -668.15035645 272.10364349 -669.54681396 272.24272156 C-672.9269803 272.57911329 -676.30720956 272.91485802 -679.6875 273.25 C-678.37189414 273.25060027 -678.37189414 273.25060027 -677.02971038 273.25121268 C-589.41089572 273.2912879 -501.79207975 273.33260525 -390.59376526 273.40898132 C-389.15336801 273.40998695 -387.71297077 273.41099257 -386.27257352 273.41199819 C-356.03738415 273.43312034 -325.80219525 273.45485763 -295.56700684 273.47730538 C-280.37857405 273.48858119 -265.19014117 273.49973881 -250.00170821 273.51078469 C-247.71060919 273.51245159 -245.41951017 273.51412186 -243.12841115 273.51579228 C-207.8542046 273.54148059 -172.57999862 273.56463625 -137.30578613 273.58044434 C-136.54752231 273.5807842 -135.7892585 273.58112406 -135.00801699 273.58147423 C-122.78277973 273.58693833 -110.55754238 273.59218962 -98.33230502 273.59741267 C-63.11420053 273.6124623 -27.89609998 273.62908896 7.32199764 273.65612316 C8.40865429 273.65695615 8.40865429 273.65695615 9.51726359 273.65780597 C25.42153909 273.67002588 41.32581381 273.68305485 57.23008801 273.69684957 C63.62971474 273.70238609 70.02934157 273.70780618 76.42896843 273.71318626 C77.47957649 273.71407371 77.47957649 273.71407371 78.55140896 273.71497908 C101.10771142 273.73397443 123.66400564 273.74349677 146.22031528 273.74803595 C169.58021801 273.7527815 192.94008853 273.76809128 216.29997785 273.79566566 C229.76752171 273.81123258 243.2350101 273.81845671 256.70256247 273.81376929 C265.69880709 273.81145775 274.69499926 273.8199885 283.69122736 273.83732411 C288.81719348 273.84689172 293.94304372 273.85175575 299.06901462 273.84339563 C303.73782431 273.83587412 308.40640635 273.84225321 313.07518858 273.85944067 C314.74842775 273.8632141 316.42168778 273.86204642 318.09491702 273.85515601 C349.35079565 273.7366372 377.38524022 285.93640487 399.9375 307.4375 C423.27677397 331.62609253 432.51069632 360.76974966 432.42602539 393.88916016 C432.42574283 395.44726561 432.4259026 397.00537119 432.4264679 398.56347656 C432.42675318 402.76524157 432.42090008 406.96697766 432.41389394 411.16873598 C432.40761548 415.57028333 432.40705306 419.97183144 432.40586853 424.37338257 C432.40276841 432.6958082 432.39457289 441.0182206 432.38451904 449.34064043 C432.37331682 458.8207385 432.36783712 468.30083724 432.36282361 477.78094029 C432.35238911 497.27063435 432.33481534 516.76031611 432.3125 536.25 C431.61129959 536.25059709 430.91009917 536.25119418 430.18765026 536.25180936 C388.62685065 536.28770494 347.06612438 536.34434643 305.50539196 536.42792095 C300.51490678 536.43793838 295.52442128 536.44778252 290.53393555 536.45751953 C289.04366466 536.46043159 289.04366466 536.46043159 287.52328729 536.46340248 C271.43741963 536.49442177 255.35156623 536.51140294 239.2656743 536.52319422 C222.759499 536.53560614 206.25339856 536.56310848 189.74727052 536.60461307 C179.56247158 536.62974727 169.37779679 536.64311733 159.19296639 536.64142957 C152.20840966 536.64139981 145.22397938 536.65603084 138.23947192 536.68216428 C134.21002269 536.69680886 130.18083277 536.70501441 126.15136147 536.69580269 C122.45909755 536.68750478 118.76735425 536.69770014 115.07516747 536.72233662 C113.11341621 536.73069159 111.1516114 536.71949395 109.189879 536.70750165 C101.99597435 536.77741722 96.58083204 537.6391431 90.3125 541.25 C89.51457031 541.70761719 88.71664063 542.16523437 87.89453125 542.63671875 C81.01611195 547.69304022 76.58787787 553.99274638 74.3125 562.25 C73.03071022 573.39482481 75.13893105 583.0931802 81.9375 592.125 C86.84676659 597.3547148 95.0071652 602.06085852 102.23313916 602.37830919 C103.43918864 602.37988309 104.64523812 602.38145698 105.88783455 602.38307858 C106.89947395 602.38644311 106.89947395 602.38644311 107.9315505 602.38987562 C110.2078115 602.39622874 112.48401544 602.39545071 114.76028442 602.39476013 C116.40225558 602.39789275 118.04422594 602.40146729 119.68619525 602.40544754 C124.21127085 602.41516502 128.73633383 602.4186992 133.26141834 602.42129052 C138.13684508 602.42517871 143.01226061 602.43481642 147.88768005 602.44384766 C156.34104306 602.45880024 164.79440518 602.47033865 173.24777603 602.47979546 C185.47983065 602.49365768 197.71186453 602.51484426 209.94390427 602.53822399 C229.80113961 602.57616267 249.65837872 602.61112181 269.515625 602.64282227 C270.704823 602.64472276 271.89402099 602.64662325 273.11925529 602.64858133 C289.98917746 602.67540327 306.85910254 602.69927874 323.72903071 602.72196633 C324.91640956 602.72356363 326.10378841 602.72516094 327.32714844 602.72680664 C328.51308287 602.72840011 329.69901731 602.72999357 330.92088915 602.73163532 C350.69512983 602.75840313 370.46934848 602.79280364 390.24356544 602.83346039 C402.44384219 602.85823742 414.64409525 602.87656302 426.84439318 602.886616 C435.20670437 602.8940076 443.56898377 602.90853485 451.93127389 602.92868023 C456.75660684 602.94007029 461.5818885 602.94820583 466.4072361 602.94767189 C470.82644559 602.94724369 475.24553971 602.95597423 479.66471957 602.97192169 C481.26167865 602.97607083 482.85865075 602.97687529 484.45561256 602.97395759 C504.29908321 602.94215973 521.74963437 608.00156159 536.5 621.875 C553.73468727 640.01245661 555.06928308 659.11344602 554.9221462 682.91295278 C554.90450118 686.66544992 554.91606294 690.41787992 554.92381287 694.1703949 C554.93443225 701.50046593 554.91862365 708.83024735 554.8936746 716.16027426 C554.86562648 724.70519883 554.86440122 733.25006622 554.86423159 741.79502917 C554.86304685 757.04139298 554.83814641 772.28762444 554.79956055 787.53393555 C554.76217529 802.31552722 554.74096135 817.0970227 554.73803711 831.87866211 C554.7378543 832.79019267 554.73767149 833.70172323 554.73748314 834.64087593 C554.73730417 835.55086194 554.7371252 836.46084796 554.7369408 837.39840931 C554.73657537 839.23077007 554.736203 841.06313084 554.73582363 842.8954916 C554.73563812 843.79923284 554.7354526 844.70297408 554.73526147 845.63410142 C554.73168982 859.74475031 554.71324211 873.85538444 554.69333039 887.9660183 C554.68631686 893.07293524 554.681529 898.17984868 554.67836904 903.28676938 C554.67331564 911.38287413 554.66186043 919.47891218 554.63706874 927.57498264 C554.62586689 931.27220501 554.61773122 934.96936214 554.61820221 938.66660309 C554.61856839 942.67649307 554.60339992 946.68617464 554.58665466 950.69602966 C554.59027729 952.44334598 554.59027729 952.44334598 554.5939731 954.22596163 C554.49242836 969.74115516 549.24619866 983.31416053 539.3125 995.25 C538.79171875 995.88421875 538.2709375 996.5184375 537.734375 997.171875 C527.86890081 1008.03386174 512.73899117 1015.39298618 498.3125 1017.25 C494.52186005 1017.39018344 490.73423241 1017.37452125 486.94140625 1017.3611145 C485.7905123 1017.36111352 484.63961836 1017.36111253 483.45384884 1017.36111152 C480.26777136 1017.36025816 477.08173559 1017.35499462 473.89566684 1017.34799528 C470.45580149 1017.34159958 467.0159355 1017.34109956 463.57606506 1017.34016418 C458.38802716 1017.33831576 453.19999522 1017.33479326 448.01195985 1017.32934658 C437.80930688 1017.31887497 427.60670452 1017.32314658 417.40405273 1017.33297729 C415.79609013 1017.33446485 414.18812752 1017.3359507 412.58016491 1017.33743489 C409.32479089 1017.3404856 406.06941695 1017.34361711 402.81404305 1017.34679389 C394.44878329 1017.35491026 386.08352342 1017.36235076 377.71826172 1017.36816406 C376.45934378 1017.36904747 376.45934378 1017.36904747 375.17499316 1017.36994873 C361.58892332 1017.37880525 348.00294968 1017.36592222 334.41689563 1017.34587134 C320.4518768 1017.32585506 306.48704362 1017.33256914 292.52204323 1017.36301792 C283.91823748 1017.38087691 275.31497181 1017.37768824 266.71119982 1017.34703366 C260.80679483 1017.32792888 254.90276386 1017.33463626 248.99838918 1017.36117335 C245.59764309 1017.37568732 242.19868304 1017.3753129 238.79786873 1017.35164452 C217.43495224 1017.0028386 217.43495224 1017.0028386 199.23500061 1027.08888435 C192.20652573 1034.34951472 189.88822954 1043.43591707 190.046875 1053.28515625 C190.9446844 1063.30629357 195.77976523 1070.75827982 203.3125 1077.25 C210.42957442 1081.72388349 216.51456852 1083.39838813 224.87345886 1083.40821838 C225.75806945 1083.41315636 226.64268003 1083.41809434 227.554097 1083.42318195 C230.52979645 1083.4385876 233.50547428 1083.44692588 236.48120117 1083.45532227 C238.60969738 1083.46489838 240.73819168 1083.4749083 242.86668396 1083.48532104 C248.65556568 1083.51240508 254.44445559 1083.5333957 260.23336577 1083.55332303 C266.27923439 1083.57516101 272.3250777 1083.60256039 278.3709259 1083.62937927 C289.82433598 1083.67933578 301.27776009 1083.72426363 312.73119766 1083.76740164 C325.76852079 1083.81674875 338.80581853 1083.87167623 351.84311712 1083.92708123 C378.66622106 1084.04094668 405.48934935 1084.14777578 432.3125 1084.25 C432.38278942 1104.96543657 432.43558539 1125.68085328 432.46793652 1146.39638519 C432.48336143 1156.0164134 432.5043666 1165.63636722 432.53881836 1175.25634766 C432.56885542 1183.64765842 432.58810675 1192.03891527 432.59476548 1200.4302783 C432.59865367 1204.867512 432.60769859 1209.30459155 432.62969017 1213.74177551 C432.65028222 1217.93112178 432.65628871 1222.12025262 432.65182304 1226.3096447 C432.65263822 1227.83486546 432.65846708 1229.36009458 432.67011642 1230.88527107 C432.77022511 1244.6865387 431.1267909 1257.9756371 426.0625 1270.9375 C425.75876465 1271.73293213 425.4550293 1272.52836426 425.14208984 1273.34790039 C414.43508564 1300.68969066 393.99960533 1323.28853261 367.25 1335.5703125 C352.08484622 1342.18824203 335.25616464 1346.42848545 318.65424746 1346.37880117 C317.9100552 1346.38057618 317.16586293 1346.38235119 316.39911939 1346.38417998 C313.90466022 1346.38891211 311.41025907 1346.38654888 308.91579723 1346.38422108 C307.10192094 1346.38617464 305.28804508 1346.38856373 303.47416988 1346.39134905 C298.4703834 1346.39775164 293.46661297 1346.39791046 288.46282317 1346.39707164 C283.02620023 1346.39724109 277.58958305 1346.40314665 272.15296298 1346.4083125 C261.36129227 1346.41764324 250.56962566 1346.42156134 239.77795142 1346.42383147 C226.85510618 1346.4267923 213.9322664 1346.435489 201.00942403 1346.44424575 C169.77256714 1346.46509588 138.53570931 1346.47556425 107.29884709 1346.48437535 C96.95357372 1346.48730973 86.60830056 1346.49067967 76.26302743 1346.49434257 C75.53309917 1346.49460086 74.80317091 1346.49485915 74.05112361 1346.49512527 C71.09801225 1346.49617151 68.14490089 1346.49721993 65.19178952 1346.49827109 C14.67621789 1346.51623597 -35.83935408 1346.53161436 -86.35492846 1346.53903012 C-90.32257142 1346.53961409 -94.29021438 1346.54021135 -98.25785733 1346.54080774 C-99.04490601 1346.54092586 -99.83195468 1346.54104398 -100.64285331 1346.54116567 C-108.61666626 1346.54236305 -116.5904792 1346.54357181 -124.56429214 1346.54479821 C-126.16305604 1346.54504344 -127.76181994 1346.5452873 -129.36058383 1346.54552978 C-180.6984329 1346.55331819 -232.03625909 1346.57569861 -283.37409815 1346.6082062 C-320.2629766 1346.63155671 -357.15185049 1346.65310591 -394.0407362 1346.66021252 C-394.79962427 1346.66035954 -395.55851234 1346.66050656 -396.34039702 1346.66065803 C-413.00127464 1346.66384311 -429.66215221 1346.66589383 -446.3230301 1346.66688558 C-453.02701608 1346.66730031 -459.73100205 1346.66785521 -466.43498802 1346.66844749 C-467.16868552 1346.66850816 -467.90238302 1346.66856883 -468.65831377 1346.66863134 C-492.27740815 1346.67064607 -515.89647551 1346.68487527 -539.51556046 1346.7053925 C-563.97484488 1346.72656419 -588.43409368 1346.73332144 -612.89338586 1346.72351871 C-626.99134693 1346.71830046 -641.08920075 1346.72419665 -655.1871464 1346.74605338 C-664.607175 1346.75955428 -674.02712973 1346.75849067 -683.44715906 1346.74565142 C-688.81262388 1346.73875021 -694.17788355 1346.7381011 -699.54333011 1346.75521151 C-704.43288905 1346.77067694 -709.32207899 1346.7674293 -714.21162736 1346.74980123 C-715.96138653 1346.7466739 -717.71117436 1346.7501218 -719.46090066 1346.76129298 C-735.69782906 1346.85813258 -750.97521466 1344.44491215 -765.6875 1337.25 C-766.73164062 1336.75886719 -767.77578125 1336.26773437 -768.8515625 1335.76171875 C-791.50485177 1324.43507412 -807.70043718 1304.03141534 -815.6875 1280.25 C-823.26433621 1254.6373223 -821.42237513 1228.79029101 -808.83789062 1205.27978516 C-796.15476749 1182.90128648 -775.2673632 1166.37501345 -750.49975586 1159.32763672 C-741.0581748 1156.81702096 -732.38815786 1156.10274148 -722.66465759 1156.11196899 C-721.45573949 1156.10914771 -720.24682139 1156.10632643 -719.0012694 1156.10341966 C-715.65783102 1156.09654175 -712.31444127 1156.09404897 -708.97099936 1156.09336853 C-705.36004431 1156.09152296 -701.74910112 1156.08391264 -698.13815308 1156.07688904 C-691.8828083 1156.06537932 -685.62746619 1156.05712652 -679.37211418 1156.05076981 C-669.47523611 1156.04042256 -659.57839137 1156.01985283 -649.68153381 1155.99765015 C-646.29195701 1155.99017087 -642.90238007 1155.98275704 -639.51280308 1155.97536278 C-638.66574104 1155.97351221 -637.81867899 1155.97166165 -636.9459484 1155.969755 C-627.30942783 1155.94883933 -617.67290358 1155.93000646 -608.03637695 1155.91210938 C-607.15579522 1155.91047119 -606.27521349 1155.90883301 -605.36794747 1155.90714519 C-591.10946528 1155.88088048 -576.85098052 1155.86222469 -562.59248441 1155.84551747 C-547.93590407 1155.82806719 -533.27937423 1155.79919053 -518.62283427 1155.7606281 C-509.59304224 1155.73729265 -500.56333257 1155.72323936 -491.53351016 1155.72130047 C-485.33813358 1155.71918322 -479.14283874 1155.70618849 -472.94749891 1155.68482114 C-469.3791736 1155.6728528 -465.81101048 1155.66559992 -462.24266624 1155.67153358 C-458.36141184 1155.6778716 -454.48044539 1155.66090189 -450.59922791 1155.64199829 C-449.48917088 1155.64752799 -448.37911385 1155.65305768 -447.23541874 1155.65875494 C-434.30876198 1155.55076254 -422.49815207 1152.3703945 -410.6875 1147.25 C-409.70136719 1146.83105469 -408.71523438 1146.41210938 -407.69921875 1145.98046875 C-384.84085449 1135.47470398 -369.33188722 1115.4663411 -360.56640625 1092.28515625 C-352.38356441 1068.99552949 -353.99501658 1043.61745071 -364.6171875 1021.29638672 C-377.0998509 996.2887253 -397.2529703 980.12193816 -423.56640625 971.2578125 C-438.03222156 967.43566267 -452.80343951 967.96367787 -467.64022957 967.99533385 C-471.20465097 968.00068731 -474.76905543 967.99430708 -478.33347487 967.98944318 C-484.57059101 967.98250347 -490.80767292 967.98284934 -497.04479027 967.98804665 C-506.32000642 967.99571555 -515.59519275 967.9918165 -524.87040861 967.98542418 C-540.47997651 967.97491072 -556.08953361 967.97306421 -571.69910431 967.97560501 C-594.00728758 967.97902656 -616.31544384 967.96564689 -638.62361984 967.94883054 C-647.5825948 967.94215061 -656.54157015 967.93601139 -665.5005455 967.92987633 C-666.49581119 967.92919233 -667.49107688 967.92850834 -668.51650214 967.92780361 C-692.19280304 967.9116346 -715.86910562 967.90079333 -739.54541016 967.89160156 C-740.58100144 967.89119553 -741.61659273 967.89078949 -742.68356557 967.89037116 C-766.84399542 967.88094376 -791.00442435 967.87407714 -815.16485596 967.87164307 C-816.20399066 967.8715365 -817.24312537 967.87142994 -818.31374901 967.87132015 C-823.55367881 967.87078698 -828.79360862 967.87027223 -834.03353843 967.86975877 C-835.06916278 967.86965656 -836.10478712 967.86955435 -837.17179402 967.86944905 C-839.26210033 967.86924349 -841.35240663 967.86904093 -843.44271294 967.86884138 C-877.9976158 967.86545878 -912.55249153 967.84853262 -947.10738028 967.81673984 C-951.98958344 967.81226676 -956.87178674 967.80797687 -961.75399017 967.80381393 C-963.19517707 967.80258325 -963.19517707 967.80258325 -964.66547886 967.8013277 C-980.10941333 967.78859377 -995.55331252 967.79056754 -1010.99724882 967.79844838 C-1026.52419078 967.8061409 -1042.05107414 967.79970253 -1057.57800445 967.77880932 C-1066.79475228 967.76686647 -1076.01134404 967.76604126 -1085.2280878 967.78130184 C-1091.39420227 967.79041578 -1097.5601951 967.78492011 -1103.72629232 967.76785937 C-1107.23316566 967.75857139 -1110.73973109 967.75536512 -1114.24659267 967.77012999 C-1147.89461193 967.88152706 -1172.79779583 960.80601965 -1197.25 936.7265625 C-1206.79416818 926.80411936 -1213.04342361 915.17408446 -1217.6875 902.25 C-1218.08066406 901.26257813 -1218.47382812 900.27515625 -1218.87890625 899.2578125 C-1224.53860285 882.49564488 -1224.50197204 857.59707619 -1217.6875 841.25 C-1217.40841797 840.5684082 -1217.12933594 839.88681641 -1216.84179688 839.18457031 C-1212.89340077 829.70758135 -1208.25553478 821.19945701 -1201.6875 813.25 C-1200.69169922 812.01056641 -1200.69169922 812.01056641 -1199.67578125 810.74609375 C-1187.15888325 795.96180942 -1170.35163802 785.35495237 -1151.6875 780.25 C-1150.91019531 780.03730469 -1150.13289063 779.82460938 -1149.33203125 779.60546875 C-1137.84642255 776.77980573 -1125.97934684 777.10185915 -1114.23487854 777.10523987 C-1112.47264668 777.10210131 -1110.71041556 777.0985254 -1108.94818538 777.09455246 C-1104.12773243 777.0849051 -1099.30729131 777.08131232 -1094.48683012 777.07870948 C-1089.27951394 777.07480015 -1084.07220808 777.06516378 -1078.86489868 777.05615234 C-1069.84746576 777.04124135 -1060.83003364 777.02968445 -1051.81259346 777.02020454 C-1038.76191854 777.00630616 -1025.71126282 776.98511505 -1012.66060173 776.96177601 C-991.46799356 776.92389005 -970.27538193 776.888917 -949.08276367 776.85717773 C-947.81513941 776.85527724 -946.54751514 776.85337675 -945.24147802 776.85141867 C-927.24864625 776.82458145 -909.25581176 776.80070579 -891.26297431 776.77803367 C-889.99565324 776.77643637 -888.72833217 776.77483906 -887.42260742 776.77319336 C-885.52394895 776.77080316 -885.52394895 776.77080316 -883.58693374 776.76836468 C-862.47336161 776.74158724 -841.35981006 776.70718643 -820.24626011 776.66653961 C-807.23012461 776.64178697 -794.21401123 776.62344779 -781.19785594 776.613384 C-772.27867764 776.60598656 -763.35952909 776.5914505 -754.44037051 776.57131977 C-749.29664421 776.55994359 -744.15296585 776.5517933 -739.00922585 776.55232811 C-734.29596451 776.55275723 -729.58281093 776.5439941 -724.86957728 776.52807831 C-723.16917037 776.52393944 -721.46875128 776.52311719 -719.76834185 776.52604241 C-694.73230537 776.56380845 -673.95767505 769.70428679 -654.6875 753.25 C-653.88183594 752.64800781 -653.07617188 752.04601562 -652.24609375 751.42578125 C-649.1305021 748.77633919 -646.73940695 745.85437104 -644.25 742.625 C-643.76700439 742.00036865 -643.28400879 741.3757373 -642.78637695 740.73217773 C-626.19952325 719.00258973 -620.87983819 694.05343178 -624.12109375 667.04296875 C-628.0422235 644.173771 -641.3375939 621.66724701 -660.27099609 608.11669922 C-678.33285726 595.6163023 -697.78934923 588.93580312 -719.81069946 588.9715271 C-721.10147915 588.9657347 -722.39225884 588.9599423 -723.72215307 588.95397437 C-727.27966995 588.93827137 -730.83710764 588.93474908 -734.39465499 588.93332577 C-738.24048185 588.92961465 -742.08626613 588.91445074 -745.93206787 588.90071106 C-752.58681411 588.87848795 -759.24154509 588.86344498 -765.89632034 588.85334396 C-775.51788273 588.8387293 -785.13939196 588.81318471 -794.76092307 588.78501268 C-810.3729906 588.73959525 -825.98506581 588.70295961 -841.59716797 588.671875 C-856.75864 588.64166875 -871.92009328 588.60730896 -887.08154297 588.56738281 C-888.01683235 588.56492126 -888.95212172 588.56245972 -889.9157532 588.55992357 C-894.60804541 588.54754857 -899.3003374 588.53509211 -903.99262929 588.52259517 C-942.89089352 588.419103 -981.78918052 588.32987484 -1020.6875 588.25 C-1020.73331857 554.69483296 -1020.76854008 521.13967373 -1020.78963066 487.58448233 C-1020.79213195 483.61930978 -1020.79472061 479.6541373 -1020.79736328 475.68896484 C-1020.7978879 474.89959965 -1020.79841252 474.11023447 -1020.79895304 473.29694912 C-1020.80764596 460.53042329 -1020.82340979 447.76391555 -1020.84180559 434.99740043 C-1020.86053564 421.88919977 -1020.87162328 408.78100855 -1020.87567699 395.67279506 C-1020.87841561 387.59007634 -1020.88705259 379.50740875 -1020.90333293 371.42470577 C-1020.91519528 365.21768579 -1020.91640351 359.01070446 -1020.91371536 352.8036747 C-1020.91426426 350.26409656 -1020.91822487 347.72451644 -1020.92591095 345.18494987 C-1020.93591611 341.70772281 -1020.93344852 338.23071146 -1020.92800903 334.753479 C-1020.93383472 333.7573318 -1020.9396604 332.7611846 -1020.94566262 331.73485112 C-1020.85764814 310.80390846 -1013.30817355 292.07889534 -998.640625 277.07421875 C-983.3429776 262.09654206 -964.52276281 256.41040514 -944.54475403 250.57078552 C-936.74475375 248.28192238 -928.96614551 245.92266483 -921.1875 243.5625 C-920.48597998 243.3496895 -919.78445995 243.13687901 -919.06168175 242.91761971 C-913.93665755 241.36272406 -908.8120357 239.80650473 -903.6875 238.25 C-897.85443285 236.47828893 -892.02121701 234.70707026 -886.1875 232.9375 C-885.49016691 232.7259729 -884.79283382 232.5144458 -884.07436943 232.29650879 C-873.96006279 229.22967373 -863.83375695 226.20938837 -853.6875 223.25 C-850.33124879 222.25689881 -846.97756179 221.25547625 -843.625 220.25 C-842.88185547 220.02828125 -842.13871094 219.8065625 -841.37304688 219.578125 C-836.58030723 218.14150029 -831.8035936 216.65922728 -827.03125 215.15625 C-814.1808603 211.12148272 -801.27169811 207.27521433 -788.37536621 203.39044189 C-785.54855026 202.5386304 -782.7220452 201.68578994 -779.89553547 200.83296299 C-766.93293746 196.92221432 -753.97038962 193.01263256 -740.97485352 189.21240234 C-736.60221557 187.93227321 -732.23760276 186.62634909 -727.875 185.3125 C-726.38933205 184.86585505 -724.90365434 184.41924252 -723.41796875 183.97265625 C-722.55067139 183.71170166 -721.68337402 183.45074707 -720.78979492 183.18188477 C-718.50653852 182.49602739 -716.22277153 181.81186924 -713.9387207 181.12866211 C-702.52101437 177.71219162 -691.11317124 174.26343417 -679.70703125 170.80859375 C-678.49071298 170.44021487 -678.49071298 170.44021487 -677.24982262 170.064394 C-669.61370164 167.75165803 -661.97771146 165.43849062 -654.34204102 163.12426758 C-650.12403066 161.84590317 -645.90581419 160.5682208 -641.6874752 159.29094124 C-640.10773837 158.81247014 -638.52807534 158.33375528 -636.94849586 157.85476494 C-627.41449659 154.96376579 -617.86981748 152.11293072 -608.30883789 149.31237793 C-603.82540897 147.99709168 -599.34887361 146.65985961 -594.875 145.3125 C-593.38933205 144.86585505 -591.90365434 144.41924252 -590.41796875 143.97265625 C-589.5571167 143.71363525 -588.69626465 143.45461426 -587.80932617 143.18774414 C-585.46096184 142.48233494 -583.11214869 141.77851225 -580.76293945 141.07592773 C-570.13323309 137.89495483 -559.51221635 134.6856713 -548.89453125 131.46484375 C-548.19352484 131.25221956 -547.49251842 131.03959538 -546.77026939 130.82052803 C-540.20315444 128.82858175 -533.6362127 126.83606507 -527.06958008 124.8425293 C-511.95852004 120.2553163 -496.84669471 115.67623382 -481.6875 111.25 C-478.41447408 110.27806872 -475.14424304 109.29707096 -471.875 108.3125 C-470.38933205 107.86585505 -468.90365434 107.41924252 -467.41796875 106.97265625 C-466.55067139 106.71170166 -465.68337402 106.45074707 -464.78979492 106.18188477 C-462.50653852 105.49602739 -460.22277153 104.81186924 -457.9387207 104.12866211 C-446.52101437 100.71219162 -435.11317124 97.26343417 -423.70703125 93.80859375 C-422.49071298 93.44021487 -422.49071298 93.44021487 -421.24982262 93.064394 C-413.61370164 90.75165803 -405.97771146 88.43849062 -398.34204102 86.12426758 C-394.12403066 84.84590317 -389.90581419 83.5682208 -385.6874752 82.29094124 C-384.10773837 81.81247014 -382.52807534 81.33375528 -380.94849586 80.85476494 C-371.41901591 77.96513619 -361.87894258 75.11529652 -352.3225708 72.31581116 C-347.75211171 70.97574199 -343.18709403 69.61823047 -338.625 68.25 C-337.88185547 68.02828125 -337.13871094 67.8065625 -336.37304688 67.578125 C-331.58030723 66.14150029 -326.8035936 64.65922728 -322.03125 63.15625 C-309.1808603 59.12148272 -296.27169811 55.27521433 -283.37536621 51.39044189 C-280.54855026 50.5386304 -277.7220452 49.68578994 -274.89553547 48.83296299 C-261.93293746 44.92221432 -248.97038962 41.01263256 -235.97485352 37.21240234 C-231.60221473 35.93227296 -227.2376275 34.62626755 -222.875 33.3125 C-221.18099351 32.80337237 -219.48698297 32.29425818 -217.79296875 31.78515625 C-216.94911621 31.53137207 -216.10526367 31.27758789 -215.23583984 31.01611328 C-211.05363986 29.75880886 -206.87052979 28.50454032 -202.6875 27.25 C-201.02082885 26.75001494 -199.35416219 26.25001493 -197.6875 25.75 C-167.6875 16.75 -167.6875 16.75 -165.32954407 16.04264832 C-163.65812109 15.54119922 -161.98672122 15.03967306 -160.31535339 14.53804016 C-156.36228365 13.35171469 -152.40896692 12.16625166 -148.4543457 10.98510742 C-139.46291272 8.2970834 -130.48036641 5.58101975 -121.50460815 2.84109497 C-116.73140801 1.3841534 -111.95665433 -0.0676697 -107.18162346 -1.51859856 C-103.66561678 -2.58730469 -100.15046314 -3.65867549 -96.63696289 -4.7355957 C-93.1663256 -5.79922207 -89.69356993 -6.85566368 -86.21935463 -7.90754128 C-84.3045189 -8.48922403 -82.39185754 -9.07804992 -80.47929382 -9.66716003 C-50.91085356 -18.59000657 -25.91066203 -17.84956718 0 0 Z " fill="#8B51FE" transform="translate(1333.6875,85.75)"/>
<path d="M0 0 C1.65461654 -0.00043714 3.30923302 -0.00131467 4.96384913 -0.00258917 C9.46779428 -0.00480608 13.97171527 -0.00085164 18.47565734 0.0041889 C23.34864984 0.00853385 28.22164112 0.00704412 33.09463501 0.00628662 C41.523257 0.00576394 49.95187122 0.00888397 58.38049126 0.01452446 C70.5666495 0.02267418 82.752804 0.02525823 94.93896467 0.02651245 C114.71334532 0.02869752 134.48772182 0.03534282 154.26210022 0.04481506 C173.46359741 0.05400328 192.66509347 0.06106574 211.86659241 0.06532288 C213.06353865 0.06559087 214.26048489 0.06585887 215.49370223 0.06613499 C224.85552039 0.06821458 234.21733857 0.07017145 243.57915676 0.07208955 C289.41496268 0.08151205 335.25075822 0.10163301 381.08656311 0.12025452 C381.08656311 92.19025452 381.08656311 184.26025452 381.08656311 279.12025452 C279.1826878 279.20091721 279.1826878 279.20091721 236.64125061 279.21791077 C226.90394585 279.22182647 217.16664116 279.22586742 207.42933655 279.2301178 C206.20893606 279.2306453 204.98853557 279.23117279 203.73115325 279.23171628 C184.0326927 279.24041319 164.33424383 279.25617991 144.6357902 279.27456011 C124.41755111 279.29326787 104.19931814 279.3043731 83.98107076 279.30843151 C71.50690639 279.31117474 59.03277504 279.3198369 46.55862084 279.33608745 C38.00284517 279.34666513 29.44708655 279.34985336 20.89130482 279.34725727 C15.9562462 279.34597721 11.02124525 279.34792977 6.0861969 279.35866547 C1.5631048 279.3684329 -2.95989111 279.36886681 -7.48298773 279.36205231 C-9.11441714 279.36121067 -10.74585268 279.36371802 -12.37727013 279.37002088 C-49.5789565 279.50532373 -82.57536512 263.86058282 -108.91343689 238.12025452 C-109.56441345 237.53115295 -110.21539001 236.94205139 -110.88609314 236.33509827 C-134.57571489 214.4375992 -147.43486351 179.64775268 -149.07041931 148.09144592 C-150.48767343 108.79458444 -138.60859806 73.51417825 -111.97593689 44.30775452 C-106.71760595 38.68565025 -101.04296922 33.78227838 -94.91343689 29.12025452 C-94.12324158 28.47959045 -93.33304626 27.83892639 -92.51890564 27.17884827 C-78.51771645 16.26453543 -61.93672237 8.84777764 -44.91343689 4.12025452 C-43.7648822 3.7941217 -42.61632751 3.46798889 -41.43296814 3.13197327 C-27.92422447 -0.33982322 -13.85589137 -0.02761827 0 0 Z " fill="#1E0B00" transform="translate(1439.9134368896484,755.8797454833984)"/>
<path d="M0 0 C12.54 0 25.08 0 38 0 C38.70125 6.06375 39.4025 12.1275 40.125 18.375 C41.56659086 30.81566353 43.02324311 43.25422376 44.52734375 55.6875 C44.6541452 56.73576965 44.78094666 57.78403931 44.91159058 58.86407471 C45.16755738 60.97941381 45.42354895 63.09474992 45.67956543 65.21008301 C48.2905479 86.78959925 50.74115549 108.38078976 53 130 C54.69862995 121.18801355 56.32533483 112.39986847 57.5 103.5 C58.34758556 97.31520403 59.29618422 91.18816675 60.5 85.0625 C61.67620342 79.01778448 62.58023431 72.9808978 63.375 66.875 C64.71537362 56.58999997 66.41304341 46.38029741 68.15478516 36.15649414 C69.64891132 27.31160814 70.96912496 18.45916441 72.09960938 9.56054688 C72.20595703 8.73232422 72.31230469 7.90410156 72.421875 7.05078125 C72.55480957 5.97824097 72.55480957 5.97824097 72.69042969 4.8840332 C73 3 73 3 74 0 C85.55 0 97.1 0 109 0 C110.0828125 7.734375 110.0828125 7.734375 111.1875 15.625 C112.81272079 27.1113216 114.54252222 38.56502837 116.5 50 C118.61447405 62.36959015 120.44068302 74.7647066 122.18652344 87.19018555 C122.39120085 88.64633219 122.59595279 90.10246835 122.80078125 91.55859375 C122.90083466 92.26992966 123.00088806 92.98126556 123.10397339 93.7141571 C124.91024693 106.49871455 126.86477537 119.26623359 129 132 C132.91099058 99.47329072 136.73390624 66.94319451 140.21044922 34.36669922 C141.43426447 22.90673354 142.71986848 11.45380838 144 0 C156.54 0 169.08 0 182 0 C180.86154167 13.66149991 180.86154167 13.66149991 179.5625 20.375 C178.62361992 25.44889968 177.75438888 30.50996437 177.0625 35.625 C176.19399638 41.94537088 175.11030006 48.21789298 174 54.5 C172.91204773 60.65701129 171.84224256 66.80350117 171 73 C170.02998359 80.13654928 168.76949202 87.21709093 167.49609375 94.3046875 C166.59421786 99.37507635 165.78061365 104.44609453 165.07055664 109.54711914 C164.09443696 116.43158373 163.00573336 123.29245154 161.87109375 130.15234375 C161.67653091 131.33671524 161.48196808 132.52108673 161.2815094 133.74134827 C160.66821271 137.47362628 160.05299645 141.20558417 159.4375 144.9375 C158.81869376 148.69445177 158.20031835 152.45147321 157.58277893 156.20863342 C157.20071137 158.53268814 156.8178866 160.85661854 156.43418884 163.18040466 C155.36427987 169.68021202 155.36427987 169.68021202 154.43774414 176.20141602 C154 179 154 179 153 180 C151.61839885 180.0927833 150.23211962 180.11747043 148.84741211 180.11352539 C147.96657455 180.11344986 147.085737 180.11337433 146.1782074 180.11329651 C145.22092239 180.10813522 144.26363739 180.10297394 143.27734375 180.09765625 C142.30213272 180.0962413 141.32692169 180.09482635 140.32215881 180.09336853 C137.19390857 180.08775133 134.06572877 180.07519593 130.9375 180.0625 C128.82226666 180.05748722 126.70703219 180.05292393 124.59179688 180.04882812 C119.39450704 180.03777631 114.19725855 180.02102146 109 180 C107.54797443 173.9398045 106.52241261 167.9347419 105.7578125 161.75390625 C103.69018056 145.90566574 100.94142639 130.16283023 98.28955078 114.40435791 C97.73109282 111.0811548 97.17575274 107.75743391 96.62051201 104.43369198 C95.95388418 100.44388369 95.28565901 96.4543435 94.6171875 92.46484375 C94.49152279 91.71425123 94.36585808 90.96365871 94.23638535 90.19032097 C93.88095778 88.06935964 93.52441073 85.94858976 93.16748047 83.82788086 C92.86461624 82.02546181 92.86461624 82.02546181 92.55563354 80.18663025 C92.07802983 77.44751117 91.56088168 74.72309998 91 72 C88.65824286 86.33196556 86.32600786 100.66547012 84 115 C83.70721161 116.80410339 83.70721161 116.80410339 83.4085083 118.64465332 C82.17884448 126.22434607 80.9522547 133.80452843 79.72897339 141.38525391 C79.32782889 143.86910267 78.92591816 146.35282781 78.52322388 148.83642578 C77.95346772 152.35154959 77.38655602 155.86712137 76.8203125 159.3828125 C76.65080582 160.42494904 76.48129913 161.46708557 76.30665588 162.540802 C76.14890182 163.52394379 75.99114777 164.50708557 75.82861328 165.52001953 C75.69206329 166.3651712 75.55551331 167.21032288 75.41482544 168.08108521 C74.85189363 172.04214891 74.44182159 176.02360571 74 180 C59.15 180 44.3 180 29 180 C26.5625 165.375 26.5625 165.375 25.69677734 160.17407227 C24.2875631 151.70851363 22.87401678 143.24371494 21.45059204 134.78053284 C16.29655321 104.12996431 11.33400175 73.45348314 6.53227234 42.7457428 C5.66116526 37.18232607 4.78075459 31.62058158 3.88525391 26.06103516 C3.7034407 24.9318013 3.5216275 23.80256744 3.33430481 22.63911438 C2.98979444 20.50364271 2.64408571 18.36836387 2.29692078 16.23332214 C2.14133194 15.26920914 1.9857431 14.30509613 1.82543945 13.31176758 C1.68975052 12.47615799 1.55406158 11.6405484 1.41426086 10.77961731 C0.88005762 7.19520778 0.44950169 3.59601349 0 0 Z " fill="#0856B0" transform="translate(1589,1547)"/>
<path d="M0 0 C87.79743658 0 87.79743658 0 97.3515625 9.22265625 C105.45944219 17.96456445 106.44988265 28.02656144 106.41992188 39.49536133 C106.42839142 40.70488968 106.43686096 41.91441803 106.44558716 43.16059875 C106.46485851 46.45013236 106.47074269 49.73931508 106.46883965 53.02889466 C106.46871911 55.78939287 106.47731676 58.54983931 106.48561716 61.31032294 C106.50478891 67.83134814 106.50775813 74.35224537 106.50097656 80.87329102 C106.49434244 87.56721301 106.51718858 94.26058307 106.55429029 100.95439321 C106.58513111 106.73142756 106.59633181 112.50828569 106.59245348 118.28540057 C106.5904005 121.72259519 106.59563682 125.15936008 106.62034607 128.5964756 C106.64264276 132.43690577 106.63277705 136.27602687 106.61523438 140.11645508 C106.62849762 141.2321991 106.64176086 142.34794312 106.65542603 143.49749756 C106.54245101 154.21768925 103.50394022 164.59530971 95.87890625 172.41796875 C73.42584732 191.32335101 8.03340247 180 0 180 C0 120.6 0 61.2 0 0 Z " fill="#339CCB" transform="translate(874,1547)"/>
<path d="M0 0 C1.10537613 -0.01283524 2.21075226 -0.02567047 3.34962463 -0.03889465 C4.54127731 -0.04628159 5.73292999 -0.05366852 6.96069336 -0.0612793 C8.19411972 -0.06935104 9.42754608 -0.07742279 10.698349 -0.08573914 C13.31174315 -0.09957186 15.9251553 -0.11029764 18.53857422 -0.11816406 C22.51094242 -0.13133841 26.4826918 -0.17921812 30.45483398 -0.22338867 C32.99844768 -0.23352043 35.54206843 -0.24203502 38.08569336 -0.2487793 C39.26317642 -0.26628738 40.44065948 -0.28379547 41.65382385 -0.30183411 C52.18869663 -0.27449744 61.09288259 1.87154637 68.83569336 9.3293457 C76.72650786 18.1528806 76.78643422 28.7884356 76.76269531 40.06542969 C76.76780624 41.32839874 76.77291718 42.5913678 76.77818298 43.89260864 C76.7914859 47.33274996 76.79216153 50.77278084 76.78961968 54.21294284 C76.78854418 57.09544146 76.793448 59.97791827 76.7982251 62.86041218 C76.80928985 69.66558462 76.80977463 76.47070184 76.80371094 83.27587891 C76.79767118 90.27359684 76.8099891 97.2711137 76.83128101 104.26879734 C76.84894736 110.29882213 76.85489052 116.32878321 76.85164326 122.3588329 C76.84983851 125.95065194 76.85238536 129.54232747 76.8663578 133.13412285 C76.8813703 137.14260616 76.87192223 141.15068491 76.86035156 145.15917969 C76.8679953 146.33403427 76.87563904 147.50888885 76.8835144 148.71934509 C76.80485962 161.08774003 73.91469515 169.56672511 65.30053711 178.42700195 C56.85886356 183.67959883 48.50430333 184.77154095 38.73413086 184.6730957 C36.96187889 184.67527855 36.96187889 184.67527855 35.15382385 184.67750549 C32.67218544 184.67585558 30.19053581 184.6643972 27.70898438 184.64355469 C23.932415 184.61455477 20.15724872 184.62297615 16.38061523 184.63598633 C13.95678036 184.6297489 11.53294987 184.62135794 9.10913086 184.6105957 C7.99219345 184.61353134 6.87525604 184.61646698 5.72447205 184.61949158 C-3.61852748 184.50820386 -12.24470411 183.14228847 -19.68774414 177.1184082 C-25.97540414 170.42683001 -28.61939466 162.57583177 -28.65913391 153.56259155 C-28.66628922 152.44411835 -28.67344452 151.32564514 -28.68081665 150.17327881 C-28.68485001 148.34666718 -28.68485001 148.34666718 -28.68896484 146.4831543 C-28.69553604 145.19311493 -28.70210724 143.90307556 -28.70887756 142.57394409 C-28.72985211 138.30362172 -28.7402753 134.03329926 -28.75024414 129.76293945 C-28.75429448 128.28814297 -28.75841148 126.81334668 -28.76259422 125.33855057 C-28.78163317 118.40645772 -28.79586564 111.47437542 -28.80420619 104.54226148 C-28.81396727 96.56302473 -28.84026248 88.58406621 -28.88070709 80.60492742 C-28.91095748 74.42296258 -28.92568357 68.24107708 -28.92898721 62.05903971 C-28.93132794 58.37372057 -28.94015964 54.6886991 -28.96544838 51.00345993 C-28.99325752 46.88453683 -28.98887086 42.76622808 -28.98193359 38.6472168 C-28.99474365 37.44162109 -29.00755371 36.23602539 -29.02075195 34.99389648 C-28.962891 25.53298019 -27.04873011 16.39139727 -21.13305664 8.7434082 C-15.07888464 2.89347333 -8.28705828 0.08405597 0 0 Z " fill="#1469B8" transform="translate(1452.511962890625,1544.822998046875)"/>
<path d="M0 0 C1.02521759 -0.01283524 2.05043518 -0.02567047 3.10671997 -0.03889465 C4.20571625 -0.04628159 5.30471252 -0.05366852 6.43701172 -0.0612793 C7.58023895 -0.06935104 8.72346619 -0.07742279 9.90133667 -0.08573914 C12.3204396 -0.09955605 14.73956183 -0.11028887 17.15869141 -0.11816406 C19.62001297 -0.12967011 22.08130985 -0.15009984 24.54248047 -0.1796875 C28.11166223 -0.2225771 31.68010351 -0.23856436 35.24951172 -0.2487793 C36.87978806 -0.27504143 36.87978806 -0.27504143 38.54299927 -0.30183411 C47.89597796 -0.27562783 57.55572306 1.82660442 64.74169922 8.17700195 C70.11974952 15.5766808 72.99710223 22.69943348 72.98220825 31.94114685 C72.9839171 32.58416199 72.98562595 33.22717713 72.98738658 33.88967758 C72.99065596 36.0238993 72.97972055 38.15779991 72.96875 40.29199219 C72.96818533 41.82995089 72.96850353 43.36791014 72.96963501 44.90586853 C72.97020735 49.06652596 72.95847224 53.22706739 72.94448709 57.38769794 C72.93195998 61.74121174 72.93080768 66.09472839 72.92843628 70.44825745 C72.92222733 78.68580388 72.90582443 86.92329705 72.8857373 95.16082007 C72.86336009 104.54169123 72.85238029 113.92256497 72.84234643 123.30345619 C72.82145768 142.59467442 72.78478875 161.88581965 72.74169922 181.17700195 C60.20169922 181.17700195 47.66169922 181.17700195 34.74169922 181.17700195 C34.7271167 176.64876709 34.71253418 172.12053223 34.69750977 167.45507812 C34.64725827 152.52322393 34.58083175 137.59147445 34.50598431 122.65972424 C34.46098501 113.60323944 34.42157997 104.54679432 34.39526367 95.49023438 C34.37231698 87.5981517 34.33895647 79.70619419 34.29299766 71.81421071 C34.26902033 67.63398164 34.25032121 63.45387687 34.24408531 59.27358055 C34.23805472 55.34108892 34.21812902 51.40891554 34.18742371 47.47654152 C34.1786108 46.03136018 34.1749276 44.58613731 34.17669106 43.14093018 C34.17833591 41.17136557 34.15992795 39.20181433 34.14042664 37.23234558 C34.13581767 36.12895938 34.13120871 35.02557318 34.12646008 33.88875103 C33.96187767 31.15851469 33.96187767 31.15851469 32.34508991 29.32181263 C30.2472883 27.82399573 28.92666452 27.8037634 26.36279297 27.8137207 C25.10499023 27.8146875 25.10499023 27.8146875 23.82177734 27.81567383 C22.94972656 27.83178711 22.07767578 27.84790039 21.17919922 27.86450195 C20.30328125 27.8612793 19.42736328 27.85805664 18.52490234 27.85473633 C13.61618937 27.62221841 13.61618937 27.62221841 9.74169922 30.17700195 C9.42597642 32.92050219 9.42597642 32.92050219 9.46322632 36.1880188 C9.45206284 37.46971954 9.44089935 38.75142029 9.42939758 40.07196045 C9.42703238 41.50036592 9.42485678 42.92877171 9.42285156 44.35717773 C9.41355767 45.85499618 9.40338982 47.35280942 9.39241028 48.85061646 C9.36503525 52.92473718 9.34993876 56.9988232 9.33698225 61.07301188 C9.32138441 65.32783919 9.2945836 69.58259526 9.26895142 73.83737183 C9.22210418 81.89795266 9.18538892 89.9585468 9.15227854 98.01919448 C9.11409907 107.19444275 9.06467804 116.36961957 9.01429439 125.54480767 C8.91088612 144.42215966 8.82313893 163.29954153 8.74169922 182.17700195 C-4.12830078 182.17700195 -16.99830078 182.17700195 -30.25830078 182.17700195 C-30.32609834 162.1402162 -30.38132944 142.10352374 -30.4137373 122.0666523 C-30.42918675 112.76257334 -30.45023943 103.45857087 -30.48461914 94.15454102 C-30.51458044 86.04235846 -30.53388975 77.93023131 -30.54056627 69.81799495 C-30.54446714 65.52515035 -30.55359446 61.23246423 -30.57549095 56.93967056 C-30.5959626 52.89315593 -30.60211317 48.846864 -30.59762383 44.80030251 C-30.59844428 43.32093785 -30.60434609 41.84156519 -30.61591721 40.36224556 C-30.70902191 27.83721109 -29.26039272 18.08822243 -21.25830078 8.17700195 C-15.07349286 2.30143443 -8.3835765 0.09197986 0 0 Z " fill="#3DADD2" transform="translate(736.25830078125,1544.822998046875)"/>
<path d="M0 0 C86.88555195 0 86.88555195 0 97.125 9.85546875 C99.85073775 12.9730313 101.63492835 16.10282653 103 20 C103.50793091 21.41877441 103.50793091 21.41877441 104.02612305 22.86621094 C105.5410096 28.24654145 105.32500177 33.74422279 105.3359375 39.29296875 C105.3459227 41.06659538 105.3459227 41.06659538 105.35610962 42.87605286 C105.36621134 45.37316336 105.37092741 47.87030073 105.37060547 50.36743164 C105.37496552 54.15752523 105.411278 57.94644126 105.44921875 61.73632812 C105.45509026 64.17187106 105.45905741 66.60741947 105.4609375 69.04296875 C105.47530853 70.16213181 105.48967957 71.28129486 105.50448608 72.43437195 C105.44643882 82.60038591 103.29135849 92.31403174 96.703125 100.31640625 C90.27116817 106.67460211 82.80090233 109.22884866 73.8815918 109.22631836 C73.00543213 109.21608643 72.12927246 109.20585449 71.2265625 109.1953125 C69.99715942 109.19229126 69.99715942 109.19229126 68.74291992 109.18920898 C65.70355573 109.17880502 62.66427179 109.15088271 59.625 109.125 C49.415625 109.063125 49.415625 109.063125 39 109 C39 132.43 39 155.86 39 180 C26.13 180 13.26 180 0 180 C0 120.6 0 61.2 0 0 Z " fill="#4FC9DB" transform="translate(400,1547)"/>
<path d="M0 0 C0.94521011 -0.01283524 1.89042023 -0.02567047 2.86427307 -0.03889465 C3.88093552 -0.04628159 4.89759796 -0.05366852 5.94506836 -0.0612793 C7.52885536 -0.07338692 7.52885536 -0.07338692 9.14463806 -0.08573914 C11.38140224 -0.09956573 13.6181874 -0.11029425 15.85498047 -0.11816406 C18.12913244 -0.12965704 20.40325801 -0.15006592 22.67724609 -0.1796875 C25.97503875 -0.22263438 29.27202975 -0.23857339 32.57006836 -0.2487793 C34.0738076 -0.27504143 34.0738076 -0.27504143 35.60792542 -0.30183411 C44.71462937 -0.27429047 54.25213619 2.01722323 61.22241211 8.17700195 C68.40330022 18.05721186 69.52252497 26.17505885 69.34741211 38.11450195 C69.30616211 42.09512695 69.26491211 46.07575195 69.22241211 50.17700195 C57.01241211 50.17700195 44.80241211 50.17700195 32.22241211 50.17700195 C31.72741211 41.26700195 31.72741211 41.26700195 31.22241211 32.17700195 C29.60040696 30.55499681 27.8021818 31.04709445 25.56616211 31.04418945 C24.62643555 31.04290039 23.68670898 31.04161133 22.71850586 31.0402832 C21.72979492 31.04415039 20.74108398 31.04801758 19.72241211 31.05200195 C18.73370117 31.04813477 17.74499023 31.04426758 16.72631836 31.0402832 C15.31672852 31.0422168 15.31672852 31.0422168 13.87866211 31.04418945 C13.01047852 31.04531738 12.14229492 31.04644531 11.24780273 31.04760742 C9.22637057 30.95284825 9.22637057 30.95284825 8.22241211 32.17700195 C8.10896061 34.96523933 8.05822948 37.7277754 8.05444336 40.5168457 C8.05111496 41.35413712 8.04778656 42.19142853 8.0443573 43.05409241 C8.03928454 44.82869923 8.03694908 46.60331562 8.03710938 48.37792969 C8.03492414 51.09952451 8.01677578 53.82071338 7.99780273 56.54223633 C7.99486869 58.26293806 7.99288397 59.98364173 7.99194336 61.7043457 C7.98475784 62.52208969 7.97757233 63.33983368 7.97016907 64.18235779 C7.79775001 68.65183015 7.79775001 68.65183015 10.22241211 72.17700195 C12.80449442 72.36208326 15.28846152 72.42971987 17.87084961 72.4152832 C19.45028504 72.43072805 21.02971224 72.44703345 22.60913086 72.46411133 C25.08832018 72.48042499 27.5669051 72.48959016 30.04614258 72.48242188 C42.0659133 72.46909619 51.17216457 73.73795721 61.59741211 80.30200195 C68.5255201 87.88992976 71.31325253 95.8640464 71.38354492 106.02368164 C71.39315247 107.15215515 71.40276001 108.28062866 71.41265869 109.44329834 C71.41690857 110.64963928 71.42115845 111.85598022 71.42553711 113.09887695 C71.43123718 114.35404114 71.43693726 115.60920532 71.44281006 116.90240479 C71.4522426 119.55517188 71.45914845 122.20782636 71.46264648 124.8605957 C71.46811759 128.23383434 71.49213251 131.6066666 71.52061844 134.97977829 C71.54390007 138.22777957 71.54570452 141.47580398 71.55053711 144.72387695 C71.56288391 145.92212097 71.57523071 147.12036499 71.58795166 148.35491943 C71.56049208 158.7956422 70.06119352 167.81033071 62.79663086 175.73168945 C54.86432397 183.3421605 44.93128634 184.78886444 34.34350586 184.6730957 C33.25078873 184.67455093 32.15807159 184.67600616 31.03224182 184.67750549 C28.73891513 184.67585682 26.44557618 184.66441254 24.15234375 184.64355469 C20.66545091 184.61454803 17.18007764 184.62297985 13.69311523 184.63598633 C11.45157148 184.62974889 9.21003246 184.62135791 6.96850586 184.6105957 C5.42434242 184.61499916 5.42434242 184.61499916 3.84898376 184.61949158 C-6.31038659 184.4886392 -14.35499511 182.63648476 -21.79711914 175.49731445 C-27.96938089 168.26590719 -29.91633931 160.67357321 -29.87524414 151.3449707 C-29.8714978 149.5973645 -29.8714978 149.5973645 -29.86767578 147.81445312 C-29.85857178 146.34596924 -29.84946777 144.87748535 -29.84008789 143.36450195 C-29.81946289 138.68262695 -29.79883789 134.00075195 -29.77758789 129.17700195 C-17.56758789 129.17700195 -5.35758789 129.17700195 7.22241211 129.17700195 C7.59741211 140.55200195 7.59741211 140.55200195 7.70043945 144.13549805 C7.7360498 145.06442871 7.77166016 145.99335937 7.80834961 146.95043945 C7.83977051 147.90354004 7.87119141 148.85664062 7.90356445 149.83862305 C8.00797007 152.36595371 8.00797007 152.36595371 10.22241211 154.17700195 C12.41844006 154.48719891 12.41844006 154.48719891 14.94116211 154.44262695 C15.8731543 154.44520508 16.80514648 154.4477832 17.76538086 154.45043945 C18.74120117 154.44270508 19.71702148 154.4349707 20.72241211 154.42700195 C22.18614258 154.43860352 22.18614258 154.43860352 23.67944336 154.45043945 C24.61143555 154.44786133 25.54342773 154.4452832 26.50366211 154.44262695 C27.78853516 154.43924316 27.78853516 154.43924316 29.09936523 154.43579102 C31.43829758 154.37201767 31.43829758 154.37201767 33.22241211 152.17700195 C33.43481695 149.11535131 33.5263651 146.14648377 33.52319336 143.08325195 C33.52962105 141.72955505 33.52962105 141.72955505 33.53617859 140.34851074 C33.54192684 138.43864787 33.54241852 136.5287631 33.53808594 134.61889648 C33.5349247 131.68866862 33.5583831 128.75944871 33.58374023 125.8293457 C33.58601296 123.9764824 33.58671685 122.12361637 33.58569336 120.27075195 C33.59490311 119.39052368 33.60411285 118.51029541 33.61360168 117.60339355 C33.62816181 114.88270362 33.62816181 114.88270362 33.22241211 111.17700195 C29.57725885 108.74689978 26.83948755 108.88095776 22.62475586 108.8684082 C21.08503899 108.84322023 19.54532554 108.81782268 18.00561523 108.79223633 C15.5922966 108.76367779 13.17903829 108.73965212 10.765625 108.72070312 C-12.40885122 108.5034051 -12.40885122 108.5034051 -21.79711914 99.49731445 C-27.5085961 92.80576156 -29.86224812 85.46009903 -29.95458984 76.7668457 C-29.96742508 75.70804199 -29.98026031 74.64923828 -29.9934845 73.55834961 C-30.00087143 72.42187988 -30.00825836 71.28541016 -30.01586914 70.11450195 C-30.02394089 68.93162598 -30.03201263 67.74875 -30.04032898 66.5300293 C-30.05414986 64.02516129 -30.06488092 61.52027462 -30.07275391 59.01538086 C-30.08424547 56.47072781 -30.10465199 53.92609833 -30.13427734 51.3815918 C-30.17725692 47.68822996 -30.19316786 43.99558385 -30.20336914 40.30200195 C-30.22087723 39.18172607 -30.23838531 38.0614502 -30.25642395 36.90722656 C-30.22424052 24.9821871 -27.62832359 14.753244 -19.15649414 6.1418457 C-15.7717297 3.34621924 -13.02495583 2.25684126 -8.77758789 1.17700195 C-7.82131248 0.90597404 -7.82131248 0.90597404 -6.84571838 0.62947083 C-4.51682045 0.11995084 -2.38383143 0.02832737 0 0 Z " fill="#58D8E2" transform="translate(264.777587890625,1544.822998046875)"/>
<path d="M0 0 C27.06 0 54.12 0 82 0 C82 10.56 82 21.12 82 32 C67.81 32 53.62 32 39 32 C39 45.86 39 59.72 39 74 C52.2 74 65.4 74 79 74 C79 83.9 79 93.8 79 104 C65.8 104 52.6 104 39 104 C39 118.52 39 133.04 39 148 C53.19 148 67.38 148 82 148 C82 158.56 82 169.12 82 180 C54.94 180 27.88 180 0 180 C0 120.6 0 61.2 0 0 Z " fill="#46BBD6" transform="translate(563,1547)"/>
<path d="M0 0 C12.04636933 10.47191984 20.7860402 23.62206782 22.31738281 39.81054688 C23.46182219 57.21590541 18.97760609 72.40717188 7.8828125 86.109375 C-2.73365833 97.45558107 -16.70160103 104.3961967 -32.21484375 105.09765625 C-51.34973054 105.54815031 -65.37522427 100.58717872 -79.578125 87.30859375 C-91.20804973 74.86497121 -95.39810428 59.3178328 -95.11328125 42.6640625 C-93.95366076 24.73596164 -85.80060726 11.63349248 -72.73046875 -0.05078125 C-51.30231335 -17.04552519 -21.5664082 -16.10135108 0 0 Z " fill="#8B51FE" transform="translate(1466.8671875,849.140625)"/>
<path d="M0 0 C27.06 0 54.12 0 82 0 C82 11.22 82 22.44 82 34 C67.81 34 53.62 34 39 34 C39 48.19 39 62.38 39 77 C52.2 77 65.4 77 79 77 C79 87.56 79 98.12 79 109 C65.8 109 52.6 109 39 109 C39 132.43 39 155.86 39 180 C26.13 180 13.26 180 0 180 C0 120.6 0 61.2 0 0 Z " fill="#2584C0" transform="translate(1142,1547)"/>
<path d="M0 0 C12.87 0 25.74 0 39 0 C39 48.51 39 97.02 39 147 C53.19 147 67.38 147 82 147 C82 157.89 82 168.78 82 180 C54.94 180 27.88 180 0 180 C0 120.6 0 61.2 0 0 Z " fill="#1D78BD" transform="translate(1285,1547)"/>
<path d="M0 0 C1.01900391 0.00064453 2.03800781 0.00128906 3.08789062 0.00195312 C4.15072266 0.01806641 5.21355469 0.03417969 6.30859375 0.05078125 C7.90864258 0.04594727 7.90864258 0.04594727 9.54101562 0.04101562 C17.47912847 0.09631597 17.47912847 0.09631597 19.74609375 2.36328125 C20.00056934 4.58440304 20.00056934 4.58440304 20.00679016 7.40501404 C20.01387497 8.47202545 20.02095978 9.53903687 20.02825928 10.63838196 C20.02578186 11.81402206 20.02330444 12.98966217 20.02075195 14.20092773 C20.02841835 16.05219269 20.02841835 16.05219269 20.03623962 17.94085693 C20.04778253 21.33140808 20.05020529 24.72171529 20.04767632 28.11226916 C20.0466084 30.94039947 20.05148542 33.76850708 20.05628175 36.59663254 C20.0673865 43.26764525 20.067809 49.93860165 20.06176758 56.60961914 C20.05572659 63.49656428 20.06803961 70.38330517 20.08933765 77.27021545 C20.106939 83.17854729 20.11295732 89.08681403 20.1096999 94.99517113 C20.10788445 98.52595033 20.110549 102.05658388 20.12441444 105.5873394 C20.1392936 109.5237216 20.13003547 113.45984263 20.1184082 117.39624023 C20.12987381 119.15666405 20.12987381 119.15666405 20.14157104 120.95265198 C20.13455673 122.02248322 20.12754242 123.09231445 20.12031555 124.19456482 C20.12048329 125.12574347 20.12065104 126.05692213 20.12082386 127.01631832 C19.67503474 129.80832918 18.99341377 130.69671124 16.74609375 132.36328125 C13.10988697 132.99861932 9.43158457 132.8266361 5.74609375 132.80078125 C4.73546875 132.82076172 3.72484375 132.84074219 2.68359375 132.86132812 C1.71421875 132.86068359 0.74484375 132.86003906 -0.25390625 132.859375 C-1.58421875 132.86215454 -1.58421875 132.86215454 -2.94140625 132.86499023 C-5.25390625 132.36328125 -5.25390625 132.36328125 -6.87462807 130.65731907 C-8.52051052 127.9198607 -8.63092585 126.33452247 -8.63485718 123.15696716 C-8.64331665 122.10403473 -8.65177612 121.05110229 -8.66049194 119.96626282 C-8.65441925 118.81651474 -8.64834656 117.66676666 -8.64208984 116.48217773 C-8.6473468 115.26721619 -8.65260376 114.05225464 -8.65802002 112.80047607 C-8.66896075 109.47190832 -8.66639794 106.14390004 -8.65688276 102.81536365 C-8.64928506 99.33206606 -8.65633192 95.8487923 -8.66104126 92.36549377 C-8.66649778 86.51713775 -8.65930923 80.66889541 -8.64501953 74.82055664 C-8.62868549 68.057389 -8.63398724 61.29449257 -8.65049875 54.53133148 C-8.66410754 48.72485895 -8.66603651 42.91846811 -8.65818274 37.11198479 C-8.65350382 33.64384486 -8.65288741 30.17583248 -8.66279221 26.70770073 C-8.67305796 22.84335639 -8.65883436 18.97931659 -8.64208984 15.11499023 C-8.64816254 13.96321793 -8.65423523 12.81144562 -8.66049194 11.62477112 C-8.65203247 10.57465851 -8.643573 9.5245459 -8.63485718 8.44261169 C-8.6337261 7.52877936 -8.63259502 6.61494703 -8.63142967 5.67342281 C-7.79548906 0.55813446 -4.67617229 -0.01490638 0 0 Z " fill="#1D0C02" transform="translate(1470.25390625,1570.63671875)"/>
<path d="M0 0 C7.92 0 15.84 0 24 0 C28.50012809 4.50012809 28.50012809 4.50012809 28.50120544 9.01649475 C28.51103958 10.02735641 28.52087372 11.03821808 28.53100586 12.07971191 C28.52133789 13.1827063 28.51166992 14.28570068 28.50170898 15.42211914 C28.50711197 16.58831284 28.51251495 17.75450653 28.51808167 18.95603943 C28.53060279 22.81600211 28.51405534 26.67522394 28.49609375 30.53515625 C28.49624865 33.21269243 28.49768204 35.89020185 28.50050354 38.56773376 C28.50320481 44.18074218 28.48973615 49.79353664 28.46655273 55.40649414 C28.43993035 61.89701849 28.43820019 68.38718543 28.4499411 74.87774569 C28.46071685 81.12163752 28.45453432 87.36539999 28.44038582 93.60928154 C28.43586032 96.2667039 28.43554405 98.92413679 28.43945122 101.58156013 C28.44235163 105.29035347 28.42591203 108.99855652 28.40405273 112.70727539 C28.40855438 113.81229401 28.41305603 114.91731262 28.41769409 116.05581665 C28.40778946 117.06385849 28.39788483 118.07190033 28.38768005 119.11048889 C28.38525016 119.9874495 28.38282026 120.86441011 28.38031673 121.76794529 C28 124 28 124 25 127 C16.75 127 8.5 127 0 127 C0 85.09 0 43.18 0 0 Z " fill="#1E0B01" transform="translate(913,1573)"/>
<path d="M0 0 C7.92 0 15.84 0 24 0 C27.27837661 3.27837661 27.37616687 3.48682455 27.38818359 7.77514648 C27.40236832 9.22696571 27.40236832 9.22696571 27.4168396 10.70811462 C27.41076691 11.75189774 27.40469421 12.79568085 27.3984375 13.87109375 C27.40130768 14.94496841 27.40417786 16.01884308 27.40713501 17.1252594 C27.40917742 19.39739509 27.40363529 21.66954829 27.39111328 23.94165039 C27.37507843 27.42048502 27.39094862 30.898155 27.41015625 34.37695312 C27.40817354 36.5833359 27.4043293 38.78971795 27.3984375 40.99609375 C27.40451019 42.03785263 27.41058289 43.07961151 27.4168396 44.15293884 C27.40738312 45.12397049 27.39792664 46.09500214 27.38818359 47.09545898 C27.38579681 47.94800766 27.38341003 48.80055634 27.38095093 49.67893982 C27 52 27 52 24 56 C16.08 56 8.16 56 0 56 C0 37.52 0 19.04 0 0 Z " fill="#1E0E03" transform="translate(439,1574)"/>
</svg>
